<svg xmlns="http://www.w3.org/2000/svg" viewBox="0 0 100 100">
  <defs>
    <linearGradient id="flame" x1="0%" y1="100%" x2="0%" y2="0%">
      <stop offset="0%" style="stop-color:#FF0000"/>
      <stop offset="100%" style="stop-color:#FF9100"/>
    </linearGradient>
  </defs>
  <!-- Hexagon Background -->
  <polygon points="50,2 95,25 95,75 50,98 5,75 5,25" fill="none" stroke="url(#flame)" stroke-width="2"/>
  <!-- Flame Icon -->
  <path d="M50 20 C35 35 30 50 30 60 C30 75 40 85 50 85 C60 85 70 75 70 60 C70 50 65 35 50 20 Z" fill="url(#flame)"/>
  <path d="M50 35 C42 45 40 55 40 60 C40 70 45 75 50 75 C55 75 60 70 60 60 C60 55 58 45 50 35 Z" fill="#FFDD00"/>
</svg>
